<?xml version="1.0" encoding="UTF-8" standalone="no"?>
<!-- Created with Inkscape (http://www.inkscape.org/) -->

<svg
   width="69.881516mm"
   height="69.999924mm"
   viewBox="0 0 69.881516 69.999924"
   version="1.1"
   id="svg67633"
   inkscape:version="1.1 (c4e8f9ed74, 2021-05-24)"
   sodipodi:docname="features.svg"
   xmlns:inkscape="http://www.inkscape.org/namespaces/inkscape"
   xmlns:sodipodi="http://sodipodi.sourceforge.net/DTD/sodipodi-0.dtd"
   xmlns:xlink="http://www.w3.org/1999/xlink"
   xmlns="http://www.w3.org/2000/svg"
   xmlns:svg="http://www.w3.org/2000/svg">
  <sodipodi:namedview
     id="namedview67635"
     pagecolor="#ffffff"
     bordercolor="#666666"
     borderopacity="1.0"
     inkscape:pageshadow="2"
     inkscape:pageopacity="0.0"
     inkscape:pagecheckerboard="0"
     inkscape:document-units="mm"
     showgrid="false"
     inkscape:snap-bbox="true"
     inkscape:bbox-nodes="false"
     inkscape:snap-bbox-midpoints="true"
     inkscape:zoom="1.7872333"
     inkscape:cx="75.255983"
     inkscape:cy="149.11316"
     inkscape:window-width="1920"
     inkscape:window-height="1020"
     inkscape:window-x="0"
     inkscape:window-y="0"
     inkscape:window-maximized="1"
     inkscape:current-layer="layer1" />
  <defs
     id="defs67630" />
  <g
     inkscape:label="Layer 1"
     inkscape:groupmode="layer"
     id="layer1"
     transform="translate(-87.111995,-114.74539)">
    <path
       style="fill:none;fill-opacity:1;stroke:#000000;stroke-width:2"
       id="path20747"
       transform="scale(1,-1)"
       sodipodi:type="arc"
       sodipodi:cx="122.05263"
       sodipodi:cy="-149.74532"
       sodipodi:rx="29"
       sodipodi:ry="29"
       sodipodi:start="4.5123812"
       sodipodi:end="4.8734259"
       sodipodi:arc-type="arc"
       d="m 116.291,-178.1672 a 29,29 0 0 1 10.41154,-0.2029"
       sodipodi:open="true" />
    <path
       id="circle68747"
       style="fill:#41967a;fill-opacity:1;stroke-width:7.55906;stroke:none"
       d="M 96.101562 198.33398 L 67.722656 247.48633 A 132.28346 132.28346 0 0 0 76.691406 252.38477 A 132.28346 132.28346 0 0 0 77.378906 252.71289 A 132.28346 132.28346 0 0 0 94.189453 258.98242 A 132.28346 132.28346 0 0 0 95.378906 259.33594 A 132.28346 132.28346 0 0 0 112.79883 263.12695 A 132.28346 132.28346 0 0 0 113.85156 263.26562 A 132.28346 132.28346 0 0 0 132.05859 264.56641 A 132.28346 132.28346 0 0 0 150.26562 263.26562 A 132.28346 132.28346 0 0 0 151.31836 263.12695 A 132.28346 132.28346 0 0 0 168.74414 259.33398 A 132.28346 132.28346 0 0 0 169.91992 258.98438 A 132.28346 132.28346 0 0 0 186.74023 252.71289 A 132.28346 132.28346 0 0 0 187.42188 252.38672 A 132.28346 132.28346 0 0 0 196.39648 247.48633 L 168.01953 198.33594 A 75.590549 75.590549 0 0 1 132.05859 207.87305 A 75.590549 75.590549 0 0 1 96.101562 198.33398 z "
       transform="matrix(0.26458333,0,0,0.26458333,87.111995,114.74539)" />
    <path
       style="fill:none;fill-opacity:1;stroke:#000000;stroke-width:2"
       id="circle20132"
       sodipodi:type="arc"
       sodipodi:cx="122.05263"
       sodipodi:cy="149.74532"
       sodipodi:rx="26"
       sodipodi:ry="26"
       sodipodi:start="4.4523513"
       sodipodi:end="4.9954425"
       sodipodi:arc-type="arc"
       d="m 115.36759,124.61943 a 26,26 0 0 1 13.94655,0.1605"
       sodipodi:open="true" />
    <path
       style="fill:none;fill-opacity:1;stroke:#000000;stroke-width:2"
       id="path20531"
       sodipodi:type="arc"
       sodipodi:cx="122.05263"
       sodipodi:cy="149.74532"
       sodipodi:rx="26"
       sodipodi:ry="26"
       sodipodi:start="5.4747349"
       sodipodi:end="6.0734177"
       sodipodi:arc-type="arc"
       d="m 140.00875,130.94165 a 26,26 0 0 1 7.47394,13.38962"
       sodipodi:open="true" />
    <path
       style="fill:none;fill-opacity:1;stroke:#000000;stroke-width:2"
       id="path26468"
       transform="scale(1,-1)"
       sodipodi:type="arc"
       sodipodi:cx="122.05263"
       sodipodi:cy="-149.74532"
       sodipodi:rx="29"
       sodipodi:ry="29"
       sodipodi:start="5.4589383"
       sodipodi:end="6.1061571"
       sodipodi:arc-type="arc"
       d="m 141.74681,-171.03238 a 29,29 0 0 1 8.85259,16.18002"
       sodipodi:open="true" />
    <path
       id="path68855"
       style="fill:#a34e9c;fill-opacity:1.0;stroke:none;stroke-width:7.55906"
       d="M 132.05859 0 A 132.28346 132.28346 0 0 0 113.85156 1.3007812 A 132.28346 132.28346 0 0 0 112.79883 1.4394531 A 132.28346 132.28346 0 0 0 95.378906 5.2304688 A 132.28346 132.28346 0 0 0 94.189453 5.5839844 A 132.28346 132.28346 0 0 0 77.378906 11.853516 A 132.28346 132.28346 0 0 0 76.691406 12.181641 A 132.28346 132.28346 0 0 0 67.701172 17.041016 L 96.080078 66.193359 A 75.590547 75.590547 0 0 1 132.05859 56.693359 A 75.590547 75.590547 0 0 1 168.04102 66.191406 L 196.41797 17.041016 A 132.28346 132.28346 0 0 0 187.42188 12.179688 A 132.28346 132.28346 0 0 0 186.74023 11.853516 A 132.28346 132.28346 0 0 0 169.91992 5.5820312 A 132.28346 132.28346 0 0 0 168.74414 5.2324219 A 132.28346 132.28346 0 0 0 151.31836 1.4394531 A 132.28346 132.28346 0 0 0 150.26562 1.3007812 A 132.28346 132.28346 0 0 0 132.05859 0 z "
       transform="matrix(0.26458333,0,0,0.26458333,87.111995,114.74539)" />
    <path
       id="path69093"
       style="fill:#4e52a3;fill-opacity:1.0;stroke:none;stroke-width:7.55906"
       d="M 207.31836 134.16797 A 75.590547 75.590547 0 0 1 197.52148 170.08008 A 75.590547 75.590547 0 0 1 171.30469 196.48828 L 199.68164 245.64062 A 132.28346 132.28346 0 0 0 208.38672 240.28516 A 132.28346 132.28346 0 0 0 209.01367 239.85352 A 132.28346 132.28346 0 0 0 222.84961 228.42969 A 132.28346 132.28346 0 0 0 223.75 227.57617 A 132.28346 132.28346 0 0 0 235.74414 214.38477 A 132.28346 132.28346 0 0 0 236.39062 213.54297 A 132.28346 132.28346 0 0 0 246.61914 198.42578 A 132.28346 132.28346 0 0 0 254.59766 182.00781 A 132.28346 132.28346 0 0 0 255.00391 181.02734 A 132.28346 132.28346 0 0 0 260.43164 164.03906 A 132.28346 132.28346 0 0 0 260.7168 162.8457 A 132.28346 132.28346 0 0 0 263.69531 145.14258 A 132.28346 132.28346 0 0 0 263.75391 144.39062 A 132.28346 132.28346 0 0 0 264.07031 134.16797 L 207.31836 134.16797 z "
       transform="matrix(0.26458333,0,0,0.26458333,87.111995,114.74539)" />
    <path
       style="fill:none;fill-opacity:1;stroke:#000000;stroke-width:2"
       id="path20555"
       sodipodi:type="arc"
       sodipodi:cx="122.05263"
       sodipodi:cy="149.74532"
       sodipodi:rx="26"
       sodipodi:ry="26"
       sodipodi:start="3.4882544"
       sodipodi:end="4.042356"
       sodipodi:arc-type="arc"
       d="m 97.599311,140.91155 a 26,26 0 0 1 8.307009,-11.54507"
       sodipodi:open="true" />
    <path
       style="fill:none;fill-opacity:1;stroke:#000000;stroke-width:2"
       id="path26492"
       transform="scale(1,-1)"
       sodipodi:type="arc"
       sodipodi:cx="122.05263"
       sodipodi:cy="-149.74532"
       sodipodi:rx="29"
       sodipodi:ry="29"
       sodipodi:start="3.4815547"
       sodipodi:end="4.019635"
       sodipodi:arc-type="arc"
       d="m 94.712375,-159.4154 a 29,29 0 0 1 8.819145,-12.64513"
       sodipodi:open="true" />
    <path
       id="path69095"
       style="fill:#9953ad;fill-opacity:1;stroke:none;stroke-width:7.55906"
       d="M 64.435547 18.927734 A 132.28346 132.28346 0 0 0 55.728516 24.287109 A 132.28346 132.28346 0 0 0 55.105469 24.712891 A 132.28346 132.28346 0 0 0 41.263672 36.144531 A 132.28346 132.28346 0 0 0 40.373047 36.988281 A 132.28346 132.28346 0 0 0 28.375 50.183594 A 132.28346 132.28346 0 0 0 27.728516 51.025391 A 132.28346 132.28346 0 0 0 17.498047 66.142578 A 132.28346 132.28346 0 0 0 9.5214844 82.560547 A 132.28346 132.28346 0 0 0 9.1152344 83.541016 A 132.28346 132.28346 0 0 0 3.6875 100.52344 A 132.28346 132.28346 0 0 0 3.4003906 101.73047 A 132.28346 132.28346 0 0 0 0.42382812 119.42383 A 132.28346 132.28346 0 0 0 0.36523438 120.18359 A 132.28346 132.28346 0 0 0 0.078125 130.39844 L 56.833984 130.39844 A 75.590547 75.590547 0 0 1 66.595703 94.490234 A 75.590547 75.590547 0 0 1 92.8125 68.078125 L 64.435547 18.927734 z "
       transform="matrix(0.26458333,0,0,0.26458333,87.111995,114.74539)" />
    <path
       id="path69099"
       style="fill:#6853ad;fill-opacity:1;stroke:none;stroke-width:7.55906"
       d="M 0.078125 134.16797 A 132.28346 132.28346 0 0 0 0.36523438 144.39062 A 132.28346 132.28346 0 0 0 0.42382812 145.14258 A 132.28346 132.28346 0 0 0 3.4023438 162.8457 A 132.28346 132.28346 0 0 0 3.6875 164.03906 A 132.28346 132.28346 0 0 0 9.1152344 181.02734 A 132.28346 132.28346 0 0 0 9.5214844 182.00781 A 132.28346 132.28346 0 0 0 17.5 198.42578 A 132.28346 132.28346 0 0 0 27.728516 213.54297 A 132.28346 132.28346 0 0 0 28.375 214.38477 A 132.28346 132.28346 0 0 0 40.369141 227.57617 A 132.28346 132.28346 0 0 0 41.269531 228.42969 A 132.28346 132.28346 0 0 0 55.105469 239.85352 A 132.28346 132.28346 0 0 0 55.732422 240.28516 A 132.28346 132.28346 0 0 0 64.435547 245.63867 L 92.814453 196.48633 A 75.590547 75.590547 0 0 1 66.597656 170.07812 A 75.590547 75.590547 0 0 1 56.832031 134.16797 L 0.078125 134.16797 z "
       transform="matrix(0.26458333,0,0,0.26458333,87.111995,114.74539)" />
    <path
       id="path69097"
       style="fill:#de955e;fill-opacity:1;stroke:none;stroke-width:7.55906"
       d="M 199.68164 18.925781 L 171.30469 68.078125 A 75.590547 75.590547 0 0 1 197.52148 94.490234 A 75.590547 75.590547 0 0 1 207.31641 130.39844 L 264.07031 130.39844 A 132.28346 132.28346 0 0 0 263.75391 120.18359 A 132.28346 132.28346 0 0 0 263.69531 119.42383 A 132.28346 132.28346 0 0 0 260.71875 101.73047 A 132.28346 132.28346 0 0 0 260.42969 100.52344 A 132.28346 132.28346 0 0 0 255.00391 83.541016 A 132.28346 132.28346 0 0 0 254.59766 82.560547 A 132.28346 132.28346 0 0 0 246.62109 66.142578 A 132.28346 132.28346 0 0 0 236.39062 51.025391 A 132.28346 132.28346 0 0 0 235.74414 50.183594 A 132.28346 132.28346 0 0 0 223.74609 36.988281 A 132.28346 132.28346 0 0 0 222.85547 36.144531 A 132.28346 132.28346 0 0 0 209.01367 24.712891 A 132.28346 132.28346 0 0 0 208.39062 24.287109 A 132.28346 132.28346 0 0 0 199.68164 18.925781 z "
       transform="matrix(0.26458333,0,0,0.26458333,87.111995,114.74539)" />
    <circle
       style="fill:#734f96;fill-opacity:1;stroke-width:2"
       id="circle67987"
       cx="122.05263"
       cy="149.74532"
       r="18" />
    <text
       xml:space="preserve"
       style="font-weight:600;font-size:8.46667px;line-height:1.25;font-family:'Source Sans Pro';-inkscape-font-specification:'Source Sans Pro Semi-Bold';fill:#ffffff;fill-opacity:1;stroke-width:0.264583"
       x="114.90253"
       y="151.96782"
       id="text6734"><tspan
         sodipodi:role="line"
         id="tspan6732"
         style="font-size:8.46667px;fill:#ffffff;fill-opacity:1;stroke-width:0.264583"
         x="114.90253"
         y="151.96782">fpm</tspan></text>
    <text
       xml:space="preserve"
       style="font-weight:600;font-size:5.64444px;line-height:1.25;font-family:'Source Sans Pro';-inkscape-font-specification:'Source Sans Pro Semi-Bold';fill:#ffffff;fill-opacity:1;stroke-width:0.264583"
       id="text874"><textPath
         xlink:href="#circle20132"
         id="textPath20448"><tspan
           id="tspan872"
           style="font-size:5.64444px;fill:#ffffff;fill-opacity:1;stroke-width:0.264583">build</tspan></textPath></text>
    <text
       xml:space="preserve"
       style="font-weight:600;font-size:5.64444px;line-height:1.25;font-family:'Source Sans Pro';-inkscape-font-specification:'Source Sans Pro Semi-Bold';fill:#ffffff;fill-opacity:1;stroke-width:0.264583"
       id="text6632"><textPath
         xlink:href="#path20747"
         id="textPath26079"><tspan
           id="tspan6630"
           style="font-size:5.64444px;fill:#ffffff;fill-opacity:1;stroke-width:0.264583">new</tspan></textPath></text>
    <text
       xml:space="preserve"
       style="font-weight:600;font-size:5.64444px;line-height:1.25;font-family:'Source Sans Pro';-inkscape-font-specification:'Source Sans Pro Semi-Bold';fill:#ffffff;fill-opacity:1;stroke-width:0.264583"
       id="text9444"><textPath
         xlink:href="#path20531"
         id="textPath20642"><tspan
           id="tspan9442"
           style="font-size:5.64444px;fill:#ffffff;fill-opacity:1;stroke-width:0.264583">install</tspan></textPath></text>
    <text
       xml:space="preserve"
       style="font-weight:600;font-size:5.64444px;line-height:1.25;font-family:'Source Sans Pro';-inkscape-font-specification:'Source Sans Pro Semi-Bold';fill:#ffffff;fill-opacity:1;stroke-width:0.264583"
       id="text11536"><textPath
         xlink:href="#path20555"
         id="textPath20639"><tspan
           id="tspan11534"
           style="font-size:5.64444px;fill:#ffffff;fill-opacity:1;stroke-width:0.264583">run</tspan></textPath></text>
    <text
       xml:space="preserve"
       style="font-weight:600;font-size:5.64444px;line-height:1.25;font-family:'Source Sans Pro';-inkscape-font-specification:'Source Sans Pro Semi-Bold';fill:#ffffff;fill-opacity:1;stroke-width:0.264583"
       id="text12038"><textPath
         xlink:href="#path26492"
         id="textPath26496"><tspan
           id="tspan12036"
           style="font-size:5.64444px;fill:#ffffff;fill-opacity:1;stroke-width:0.264583">test</tspan></textPath></text>
    <text
       xml:space="preserve"
       style="font-weight:600;font-size:5.64444px;line-height:1.25;font-family:'Source Sans Pro';-inkscape-font-specification:'Source Sans Pro Semi-Bold';fill:#ffffff;fill-opacity:1;stroke-width:0.264583"
       id="text15564"><textPath
         xlink:href="#path26468"
         id="textPath26499"><tspan
           id="tspan15562"
           style="font-size:5.64444px;fill:#ffffff;fill-opacity:1;stroke-width:0.264583">update</tspan></textPath></text>
  </g>
</svg>
